<svg width="180" height="180" viewBox="0 0 180 180" fill="none" xmlns="http://www.w3.org/2000/svg">
<rect width="180" height="180" rx="90" fill="white"/>
<rect x="39" y="20" width="23" height="135" fill="#36846B"/>
<path d="M103 89C111.752 89 120.146 92.4768 126.335 98.6655C132.523 104.854 136 113.248 136 122C136 130.752 132.523 139.146 126.335 145.335C120.146 151.523 111.752 155 103 155L103 144.545L103 134.089C106.206 134.089 109.281 132.816 111.549 130.549C113.816 128.281 115.089 125.206 115.089 122C115.089 118.794 113.816 115.719 111.549 113.451C109.281 111.184 106.206 109.911 103 109.911V99.4553V89Z" fill="#4385F5"/>
<path d="M100.537 109.91H103V105.489V100.967V96.9483V91.9244V89H98.5672H93.1493H80.3433H70V89.9148V109.91H84.2836H100.537Z" fill="#4385F5"/>
<path d="M101 155H103.5V150.5V146V142V137L104.5 134.05H99L93.5 134.1H80.5H70V135V155H84.5H101Z" fill="#4385F5"/>
<path d="M103 20C111.752 20 120.146 23.4768 126.335 29.6655C132.523 35.8542 136 44.2479 136 53C136 61.7521 132.523 70.1458 126.335 76.3345C120.146 82.5232 111.752 86 103 86L103 75.5447L103 65.0894C106.206 65.0894 109.281 63.8157 111.549 61.5485C113.816 59.2813 115.089 56.2063 115.089 53C115.089 49.7937 113.816 46.7187 111.549 44.4515C109.281 42.1843 106.206 40.9106 103 40.9106V30.4553V20Z" fill="#4385F5"/>
<path d="M101 40.9H103.5V36.5V32V28V23V20H99H93.5H80.5H70V21V40.9H84.5H101Z" fill="#4385F5"/>
<path d="M100.537 86H103V81.5789V77.0574V73.0383V68.0144V65.1H98.5672H93.1493H80.3433H70V66.0048V86H84.2836H100.537Z" fill="#4385F5"/>
<path d="M116 87.1036C122.201 88.8408 127.818 92.5596 132.17 97.8084C136.522 103.057 139.42 109.61 140.514 116.671C141.607 123.731 140.848 130.996 138.329 137.582C135.81 144.169 131.639 149.793 126.324 153.772L125.462 152.326C130.528 148.534 134.503 143.174 136.904 136.897C139.304 130.62 140.027 123.697 138.985 116.968C137.943 110.239 135.181 103.994 131.034 98.9924C126.887 93.9903 121.533 90.4463 115.624 88.7907L116 87.1036Z" fill="#D68438"/>
<path d="M127.2 22.9075C132.35 27.0382 136.332 32.743 138.669 39.3411C141.007 45.9392 141.602 53.152 140.383 60.1189C139.165 67.0858 136.185 73.5127 131.798 78.6326C127.411 83.7525 122.804 87.3493 116.644 88.9937L115.283 87.2936C121.152 85.7268 126.495 82.2999 130.674 77.4218C134.854 72.5438 137.693 66.4205 138.854 59.7827C140.015 53.1448 139.448 46.2727 137.22 39.9862C134.993 33.6998 131.2 28.2645 126.293 24.3289L127.2 22.9075Z" fill="#D68438"/>
<rect x="115" y="87.2" width="1" height="1.7" fill="#D68438"/>
</svg>
